%TF.GenerationSoftware,KiCad,Pcbnew,9.0.2*%
%TF.CreationDate,2025-07-05T15:14:09-07:00*%
%TF.ProjectId,Hackpad,4861636b-7061-4642-9e6b-696361645f70,rev?*%
%TF.SameCoordinates,Original*%
%TF.FileFunction,Soldermask,Bot*%
%TF.FilePolarity,Negative*%
%FSLAX46Y46*%
G04 Gerber Fmt 4.6, Leading zero omitted, Abs format (unit mm)*
G04 Created by KiCad (PCBNEW 9.0.2) date 2025-07-05 15:14:09*
%MOMM*%
%LPD*%
G01*
G04 APERTURE LIST*
%ADD10C,1.524000*%
%ADD11C,2.200000*%
%ADD12C,1.700000*%
%ADD13C,4.000000*%
%ADD14C,3.050000*%
G04 APERTURE END LIST*
D10*
%TO.C,U1*%
X123666250Y-92868750D03*
X123666250Y-95408750D03*
X123666250Y-97948750D03*
X123666250Y-100488750D03*
X123666250Y-103028750D03*
X123666250Y-105568750D03*
X123666250Y-108108750D03*
X138906250Y-108108750D03*
X138906250Y-105568750D03*
X138906250Y-103028750D03*
X138906250Y-100488750D03*
X138906250Y-97948750D03*
X138906250Y-95408750D03*
X138906250Y-92868750D03*
%TD*%
D11*
%TO.C,SW2*%
X127476250Y-118903750D03*
X133826250Y-116363750D03*
D12*
X136366250Y-121443750D03*
D13*
X131286250Y-121443750D03*
D12*
X126206250Y-121443750D03*
%TD*%
%TO.C,SW8*%
X145256250Y-121443750D03*
D13*
X150336250Y-121443750D03*
D12*
X155416250Y-121443750D03*
D11*
X152876250Y-116363750D03*
X146526250Y-118903750D03*
%TD*%
%TO.C,SW4*%
X117951250Y-137953750D03*
X124301250Y-135413750D03*
D12*
X126841250Y-140493750D03*
D13*
X121761250Y-140493750D03*
D12*
X116681250Y-140493750D03*
%TD*%
%TO.C,SW5*%
X107156250Y-121443750D03*
D13*
X112236250Y-121443750D03*
D12*
X117316250Y-121443750D03*
D11*
X114776250Y-116363750D03*
X108426250Y-118903750D03*
%TD*%
%TO.C,SW1*%
X127476250Y-157003750D03*
X133826250Y-154463750D03*
D13*
X143186250Y-167783750D03*
D14*
X143186250Y-152543750D03*
D12*
X136366250Y-159543750D03*
D13*
X131286250Y-159543750D03*
D12*
X126206250Y-159543750D03*
D13*
X119386250Y-167783750D03*
D14*
X119386250Y-152543750D03*
%TD*%
D11*
%TO.C,SW3*%
X137001250Y-137953750D03*
X143351250Y-135413750D03*
D12*
X145891250Y-140493750D03*
D13*
X140811250Y-140493750D03*
D12*
X135731250Y-140493750D03*
%TD*%
M02*
