%TF.GenerationSoftware,KiCad,Pcbnew,9.0.2*%
%TF.CreationDate,2025-07-05T15:14:09-07:00*%
%TF.ProjectId,Hackpad,4861636b-7061-4642-9e6b-696361645f70,rev?*%
%TF.SameCoordinates,Original*%
%TF.FileFunction,Soldermask,Top*%
%TF.FilePolarity,Negative*%
%FSLAX46Y46*%
G04 Gerber Fmt 4.6, Leading zero omitted, Abs format (unit mm)*
G04 Created by KiCad (PCBNEW 9.0.2) date 2025-07-05 15:14:09*
%MOMM*%
%LPD*%
G01*
G04 APERTURE LIST*
G04 Aperture macros list*
%AMRoundRect*
0 Rectangle with rounded corners*
0 $1 Rounding radius*
0 $2 $3 $4 $5 $6 $7 $8 $9 X,Y pos of 4 corners*
0 Add a 4 corners polygon primitive as box body*
4,1,4,$2,$3,$4,$5,$6,$7,$8,$9,$2,$3,0*
0 Add four circle primitives for the rounded corners*
1,1,$1+$1,$2,$3*
1,1,$1+$1,$4,$5*
1,1,$1+$1,$6,$7*
1,1,$1+$1,$8,$9*
0 Add four rect primitives between the rounded corners*
20,1,$1+$1,$2,$3,$4,$5,0*
20,1,$1+$1,$4,$5,$6,$7,0*
20,1,$1+$1,$6,$7,$8,$9,0*
20,1,$1+$1,$8,$9,$2,$3,0*%
G04 Aperture macros list end*
%ADD10RoundRect,0.152400X1.063600X0.609600X-1.063600X0.609600X-1.063600X-0.609600X1.063600X-0.609600X0*%
%ADD11C,1.524000*%
%ADD12RoundRect,0.152400X-1.063600X-0.609600X1.063600X-0.609600X1.063600X0.609600X-1.063600X0.609600X0*%
%ADD13C,2.200000*%
%ADD14C,1.700000*%
%ADD15C,4.000000*%
%ADD16R,1.600000X0.850000*%
%ADD17C,3.050000*%
G04 APERTURE END LIST*
D10*
%TO.C,U1*%
X122831250Y-92868750D03*
D11*
X123666250Y-92868750D03*
D10*
X122831250Y-95408750D03*
D11*
X123666250Y-95408750D03*
D10*
X122831250Y-97948750D03*
D11*
X123666250Y-97948750D03*
D10*
X122831250Y-100488750D03*
D11*
X123666250Y-100488750D03*
D10*
X122831250Y-103028750D03*
D11*
X123666250Y-103028750D03*
D10*
X122831250Y-105568750D03*
D11*
X123666250Y-105568750D03*
D10*
X122831250Y-108108750D03*
D11*
X123666250Y-108108750D03*
X138906250Y-108108750D03*
D12*
X139741250Y-108108750D03*
D11*
X138906250Y-105568750D03*
D12*
X139741250Y-105568750D03*
D11*
X138906250Y-103028750D03*
D12*
X139741250Y-103028750D03*
D11*
X138906250Y-100488750D03*
D12*
X139741250Y-100488750D03*
D11*
X138906250Y-97948750D03*
D12*
X139741250Y-97948750D03*
D11*
X138906250Y-95408750D03*
D12*
X139741250Y-95408750D03*
D11*
X138906250Y-92868750D03*
D12*
X139741250Y-92868750D03*
%TD*%
D13*
%TO.C,SW2*%
X127476250Y-118903750D03*
X133826250Y-116363750D03*
D14*
X136366250Y-121443750D03*
D15*
X131286250Y-121443750D03*
D14*
X126206250Y-121443750D03*
%TD*%
%TO.C,SW8*%
X145256250Y-121443750D03*
D15*
X150336250Y-121443750D03*
D14*
X155416250Y-121443750D03*
D13*
X152876250Y-116363750D03*
X146526250Y-118903750D03*
%TD*%
D16*
%TO.C,D1*%
X149228750Y-100012500D03*
X149228750Y-101762500D03*
X145728750Y-101762500D03*
X145728750Y-100012500D03*
%TD*%
D13*
%TO.C,SW4*%
X117951250Y-137953750D03*
X124301250Y-135413750D03*
D14*
X126841250Y-140493750D03*
D15*
X121761250Y-140493750D03*
D14*
X116681250Y-140493750D03*
%TD*%
D16*
%TO.C,D2*%
X111760000Y-100012500D03*
X111760000Y-101762500D03*
X115260000Y-101762500D03*
X115260000Y-100012500D03*
%TD*%
D14*
%TO.C,SW5*%
X107156250Y-121443750D03*
D15*
X112236250Y-121443750D03*
D14*
X117316250Y-121443750D03*
D13*
X114776250Y-116363750D03*
X108426250Y-118903750D03*
%TD*%
%TO.C,SW1*%
X127476250Y-157003750D03*
X133826250Y-154463750D03*
D15*
X143186250Y-167783750D03*
D17*
X143186250Y-152543750D03*
D14*
X136366250Y-159543750D03*
D15*
X131286250Y-159543750D03*
D14*
X126206250Y-159543750D03*
D15*
X119386250Y-167783750D03*
D17*
X119386250Y-152543750D03*
%TD*%
D13*
%TO.C,SW3*%
X137001250Y-137953750D03*
X143351250Y-135413750D03*
D14*
X145891250Y-140493750D03*
D15*
X140811250Y-140493750D03*
D14*
X135731250Y-140493750D03*
%TD*%
M02*
