%TF.GenerationSoftware,KiCad,Pcbnew,9.0.2*%
%TF.CreationDate,2025-07-05T15:14:09-07:00*%
%TF.ProjectId,Hackpad,4861636b-7061-4642-9e6b-696361645f70,rev?*%
%TF.SameCoordinates,Original*%
%TF.FileFunction,Legend,Top*%
%TF.FilePolarity,Positive*%
%FSLAX46Y46*%
G04 Gerber Fmt 4.6, Leading zero omitted, Abs format (unit mm)*
G04 Created by KiCad (PCBNEW 9.0.2) date 2025-07-05 15:14:09*
%MOMM*%
%LPD*%
G01*
G04 APERTURE LIST*
%ADD10C,0.100000*%
%ADD11C,0.101600*%
%ADD12C,0.150000*%
%ADD13C,0.127000*%
%ADD14C,0.504000*%
%ADD15C,0.120000*%
G04 APERTURE END LIST*
D10*
X109841384Y-161797419D02*
X109841384Y-160797419D01*
X109841384Y-160797419D02*
X110412812Y-161797419D01*
X110412812Y-161797419D02*
X110412812Y-160797419D01*
X110889003Y-161797419D02*
X110889003Y-161130752D01*
X110889003Y-160797419D02*
X110841384Y-160845038D01*
X110841384Y-160845038D02*
X110889003Y-160892657D01*
X110889003Y-160892657D02*
X110936622Y-160845038D01*
X110936622Y-160845038D02*
X110889003Y-160797419D01*
X110889003Y-160797419D02*
X110889003Y-160892657D01*
X111317574Y-161749800D02*
X111412812Y-161797419D01*
X111412812Y-161797419D02*
X111603288Y-161797419D01*
X111603288Y-161797419D02*
X111698526Y-161749800D01*
X111698526Y-161749800D02*
X111746145Y-161654561D01*
X111746145Y-161654561D02*
X111746145Y-161606942D01*
X111746145Y-161606942D02*
X111698526Y-161511704D01*
X111698526Y-161511704D02*
X111603288Y-161464085D01*
X111603288Y-161464085D02*
X111460431Y-161464085D01*
X111460431Y-161464085D02*
X111365193Y-161416466D01*
X111365193Y-161416466D02*
X111317574Y-161321228D01*
X111317574Y-161321228D02*
X111317574Y-161273609D01*
X111317574Y-161273609D02*
X111365193Y-161178371D01*
X111365193Y-161178371D02*
X111460431Y-161130752D01*
X111460431Y-161130752D02*
X111603288Y-161130752D01*
X111603288Y-161130752D02*
X111698526Y-161178371D01*
X112603288Y-161797419D02*
X112603288Y-161273609D01*
X112603288Y-161273609D02*
X112555669Y-161178371D01*
X112555669Y-161178371D02*
X112460431Y-161130752D01*
X112460431Y-161130752D02*
X112269955Y-161130752D01*
X112269955Y-161130752D02*
X112174717Y-161178371D01*
X112603288Y-161749800D02*
X112508050Y-161797419D01*
X112508050Y-161797419D02*
X112269955Y-161797419D01*
X112269955Y-161797419D02*
X112174717Y-161749800D01*
X112174717Y-161749800D02*
X112127098Y-161654561D01*
X112127098Y-161654561D02*
X112127098Y-161559323D01*
X112127098Y-161559323D02*
X112174717Y-161464085D01*
X112174717Y-161464085D02*
X112269955Y-161416466D01*
X112269955Y-161416466D02*
X112508050Y-161416466D01*
X112508050Y-161416466D02*
X112603288Y-161368847D01*
X113079479Y-161702180D02*
X113127098Y-161749800D01*
X113127098Y-161749800D02*
X113079479Y-161797419D01*
X113079479Y-161797419D02*
X113031860Y-161749800D01*
X113031860Y-161749800D02*
X113079479Y-161702180D01*
X113079479Y-161702180D02*
X113079479Y-161797419D01*
X113079479Y-161416466D02*
X113031860Y-160845038D01*
X113031860Y-160845038D02*
X113079479Y-160797419D01*
X113079479Y-160797419D02*
X113127098Y-160845038D01*
X113127098Y-160845038D02*
X113079479Y-161416466D01*
X113079479Y-161416466D02*
X113079479Y-160797419D01*
X113555669Y-161702180D02*
X113603288Y-161749800D01*
X113603288Y-161749800D02*
X113555669Y-161797419D01*
X113555669Y-161797419D02*
X113508050Y-161749800D01*
X113508050Y-161749800D02*
X113555669Y-161702180D01*
X113555669Y-161702180D02*
X113555669Y-161797419D01*
X113555669Y-161416466D02*
X113508050Y-160845038D01*
X113508050Y-160845038D02*
X113555669Y-160797419D01*
X113555669Y-160797419D02*
X113603288Y-160845038D01*
X113603288Y-160845038D02*
X113555669Y-161416466D01*
X113555669Y-161416466D02*
X113555669Y-160797419D01*
X114031859Y-161702180D02*
X114079478Y-161749800D01*
X114079478Y-161749800D02*
X114031859Y-161797419D01*
X114031859Y-161797419D02*
X113984240Y-161749800D01*
X113984240Y-161749800D02*
X114031859Y-161702180D01*
X114031859Y-161702180D02*
X114031859Y-161797419D01*
X114031859Y-161416466D02*
X113984240Y-160845038D01*
X113984240Y-160845038D02*
X114031859Y-160797419D01*
X114031859Y-160797419D02*
X114079478Y-160845038D01*
X114079478Y-160845038D02*
X114031859Y-161416466D01*
X114031859Y-161416466D02*
X114031859Y-160797419D01*
X128796146Y-96503669D02*
X129462812Y-97503669D01*
X129462812Y-96503669D02*
X128796146Y-97503669D01*
X129843765Y-97503669D02*
X129843765Y-96503669D01*
X130272336Y-97217954D02*
X130748526Y-97217954D01*
X130177098Y-97503669D02*
X130510431Y-96503669D01*
X130510431Y-96503669D02*
X130843764Y-97503669D01*
X131367574Y-96503669D02*
X131558050Y-96503669D01*
X131558050Y-96503669D02*
X131653288Y-96551288D01*
X131653288Y-96551288D02*
X131748526Y-96646526D01*
X131748526Y-96646526D02*
X131796145Y-96837002D01*
X131796145Y-96837002D02*
X131796145Y-97170335D01*
X131796145Y-97170335D02*
X131748526Y-97360811D01*
X131748526Y-97360811D02*
X131653288Y-97456050D01*
X131653288Y-97456050D02*
X131558050Y-97503669D01*
X131558050Y-97503669D02*
X131367574Y-97503669D01*
X131367574Y-97503669D02*
X131272336Y-97456050D01*
X131272336Y-97456050D02*
X131177098Y-97360811D01*
X131177098Y-97360811D02*
X131129479Y-97170335D01*
X131129479Y-97170335D02*
X131129479Y-96837002D01*
X131129479Y-96837002D02*
X131177098Y-96646526D01*
X131177098Y-96646526D02*
X131272336Y-96551288D01*
X131272336Y-96551288D02*
X131367574Y-96503669D01*
X132986622Y-97503669D02*
X132986622Y-96503669D01*
X132986622Y-96979859D02*
X133558050Y-96979859D01*
X133558050Y-97503669D02*
X133558050Y-96503669D01*
X134034241Y-96979859D02*
X134367574Y-96979859D01*
X134510431Y-97503669D02*
X134034241Y-97503669D01*
X134034241Y-97503669D02*
X134034241Y-96503669D01*
X134034241Y-96503669D02*
X134510431Y-96503669D01*
X135510431Y-97503669D02*
X135177098Y-97027478D01*
X134939003Y-97503669D02*
X134939003Y-96503669D01*
X134939003Y-96503669D02*
X135319955Y-96503669D01*
X135319955Y-96503669D02*
X135415193Y-96551288D01*
X135415193Y-96551288D02*
X135462812Y-96598907D01*
X135462812Y-96598907D02*
X135510431Y-96694145D01*
X135510431Y-96694145D02*
X135510431Y-96837002D01*
X135510431Y-96837002D02*
X135462812Y-96932240D01*
X135462812Y-96932240D02*
X135415193Y-96979859D01*
X135415193Y-96979859D02*
X135319955Y-97027478D01*
X135319955Y-97027478D02*
X134939003Y-97027478D01*
X135939003Y-96979859D02*
X136272336Y-96979859D01*
X136415193Y-97503669D02*
X135939003Y-97503669D01*
X135939003Y-97503669D02*
X135939003Y-96503669D01*
X135939003Y-96503669D02*
X136415193Y-96503669D01*
X136843765Y-97408430D02*
X136891384Y-97456050D01*
X136891384Y-97456050D02*
X136843765Y-97503669D01*
X136843765Y-97503669D02*
X136796146Y-97456050D01*
X136796146Y-97456050D02*
X136843765Y-97408430D01*
X136843765Y-97408430D02*
X136843765Y-97503669D01*
X136843765Y-97122716D02*
X136796146Y-96551288D01*
X136796146Y-96551288D02*
X136843765Y-96503669D01*
X136843765Y-96503669D02*
X136891384Y-96551288D01*
X136891384Y-96551288D02*
X136843765Y-97122716D01*
X136843765Y-97122716D02*
X136843765Y-96503669D01*
D11*
X122302440Y-88142229D02*
X122302440Y-88656276D01*
X122302440Y-88656276D02*
X122332678Y-88716752D01*
X122332678Y-88716752D02*
X122362916Y-88746991D01*
X122362916Y-88746991D02*
X122423392Y-88777229D01*
X122423392Y-88777229D02*
X122544345Y-88777229D01*
X122544345Y-88777229D02*
X122604821Y-88746991D01*
X122604821Y-88746991D02*
X122635059Y-88716752D01*
X122635059Y-88716752D02*
X122665297Y-88656276D01*
X122665297Y-88656276D02*
X122665297Y-88142229D01*
X123300297Y-88777229D02*
X122937440Y-88777229D01*
X123118868Y-88777229D02*
X123118868Y-88142229D01*
X123118868Y-88142229D02*
X123058392Y-88232943D01*
X123058392Y-88232943D02*
X122997916Y-88293419D01*
X122997916Y-88293419D02*
X122937440Y-88323657D01*
D12*
X129952917Y-113976950D02*
X130095774Y-114024569D01*
X130095774Y-114024569D02*
X130333869Y-114024569D01*
X130333869Y-114024569D02*
X130429107Y-113976950D01*
X130429107Y-113976950D02*
X130476726Y-113929330D01*
X130476726Y-113929330D02*
X130524345Y-113834092D01*
X130524345Y-113834092D02*
X130524345Y-113738854D01*
X130524345Y-113738854D02*
X130476726Y-113643616D01*
X130476726Y-113643616D02*
X130429107Y-113595997D01*
X130429107Y-113595997D02*
X130333869Y-113548378D01*
X130333869Y-113548378D02*
X130143393Y-113500759D01*
X130143393Y-113500759D02*
X130048155Y-113453140D01*
X130048155Y-113453140D02*
X130000536Y-113405521D01*
X130000536Y-113405521D02*
X129952917Y-113310283D01*
X129952917Y-113310283D02*
X129952917Y-113215045D01*
X129952917Y-113215045D02*
X130000536Y-113119807D01*
X130000536Y-113119807D02*
X130048155Y-113072188D01*
X130048155Y-113072188D02*
X130143393Y-113024569D01*
X130143393Y-113024569D02*
X130381488Y-113024569D01*
X130381488Y-113024569D02*
X130524345Y-113072188D01*
X130857679Y-113024569D02*
X131095774Y-114024569D01*
X131095774Y-114024569D02*
X131286250Y-113310283D01*
X131286250Y-113310283D02*
X131476726Y-114024569D01*
X131476726Y-114024569D02*
X131714822Y-113024569D01*
X132048155Y-113119807D02*
X132095774Y-113072188D01*
X132095774Y-113072188D02*
X132191012Y-113024569D01*
X132191012Y-113024569D02*
X132429107Y-113024569D01*
X132429107Y-113024569D02*
X132524345Y-113072188D01*
X132524345Y-113072188D02*
X132571964Y-113119807D01*
X132571964Y-113119807D02*
X132619583Y-113215045D01*
X132619583Y-113215045D02*
X132619583Y-113310283D01*
X132619583Y-113310283D02*
X132571964Y-113453140D01*
X132571964Y-113453140D02*
X132000536Y-114024569D01*
X132000536Y-114024569D02*
X132619583Y-114024569D01*
X149002917Y-113976950D02*
X149145774Y-114024569D01*
X149145774Y-114024569D02*
X149383869Y-114024569D01*
X149383869Y-114024569D02*
X149479107Y-113976950D01*
X149479107Y-113976950D02*
X149526726Y-113929330D01*
X149526726Y-113929330D02*
X149574345Y-113834092D01*
X149574345Y-113834092D02*
X149574345Y-113738854D01*
X149574345Y-113738854D02*
X149526726Y-113643616D01*
X149526726Y-113643616D02*
X149479107Y-113595997D01*
X149479107Y-113595997D02*
X149383869Y-113548378D01*
X149383869Y-113548378D02*
X149193393Y-113500759D01*
X149193393Y-113500759D02*
X149098155Y-113453140D01*
X149098155Y-113453140D02*
X149050536Y-113405521D01*
X149050536Y-113405521D02*
X149002917Y-113310283D01*
X149002917Y-113310283D02*
X149002917Y-113215045D01*
X149002917Y-113215045D02*
X149050536Y-113119807D01*
X149050536Y-113119807D02*
X149098155Y-113072188D01*
X149098155Y-113072188D02*
X149193393Y-113024569D01*
X149193393Y-113024569D02*
X149431488Y-113024569D01*
X149431488Y-113024569D02*
X149574345Y-113072188D01*
X149907679Y-113024569D02*
X150145774Y-114024569D01*
X150145774Y-114024569D02*
X150336250Y-113310283D01*
X150336250Y-113310283D02*
X150526726Y-114024569D01*
X150526726Y-114024569D02*
X150764822Y-113024569D01*
X151288631Y-113453140D02*
X151193393Y-113405521D01*
X151193393Y-113405521D02*
X151145774Y-113357902D01*
X151145774Y-113357902D02*
X151098155Y-113262664D01*
X151098155Y-113262664D02*
X151098155Y-113215045D01*
X151098155Y-113215045D02*
X151145774Y-113119807D01*
X151145774Y-113119807D02*
X151193393Y-113072188D01*
X151193393Y-113072188D02*
X151288631Y-113024569D01*
X151288631Y-113024569D02*
X151479107Y-113024569D01*
X151479107Y-113024569D02*
X151574345Y-113072188D01*
X151574345Y-113072188D02*
X151621964Y-113119807D01*
X151621964Y-113119807D02*
X151669583Y-113215045D01*
X151669583Y-113215045D02*
X151669583Y-113262664D01*
X151669583Y-113262664D02*
X151621964Y-113357902D01*
X151621964Y-113357902D02*
X151574345Y-113405521D01*
X151574345Y-113405521D02*
X151479107Y-113453140D01*
X151479107Y-113453140D02*
X151288631Y-113453140D01*
X151288631Y-113453140D02*
X151193393Y-113500759D01*
X151193393Y-113500759D02*
X151145774Y-113548378D01*
X151145774Y-113548378D02*
X151098155Y-113643616D01*
X151098155Y-113643616D02*
X151098155Y-113834092D01*
X151098155Y-113834092D02*
X151145774Y-113929330D01*
X151145774Y-113929330D02*
X151193393Y-113976950D01*
X151193393Y-113976950D02*
X151288631Y-114024569D01*
X151288631Y-114024569D02*
X151479107Y-114024569D01*
X151479107Y-114024569D02*
X151574345Y-113976950D01*
X151574345Y-113976950D02*
X151621964Y-113929330D01*
X151621964Y-113929330D02*
X151669583Y-113834092D01*
X151669583Y-113834092D02*
X151669583Y-113643616D01*
X151669583Y-113643616D02*
X151621964Y-113548378D01*
X151621964Y-113548378D02*
X151574345Y-113500759D01*
X151574345Y-113500759D02*
X151479107Y-113453140D01*
X146740655Y-101342319D02*
X146740655Y-100342319D01*
X146740655Y-100342319D02*
X146978750Y-100342319D01*
X146978750Y-100342319D02*
X147121607Y-100389938D01*
X147121607Y-100389938D02*
X147216845Y-100485176D01*
X147216845Y-100485176D02*
X147264464Y-100580414D01*
X147264464Y-100580414D02*
X147312083Y-100770890D01*
X147312083Y-100770890D02*
X147312083Y-100913747D01*
X147312083Y-100913747D02*
X147264464Y-101104223D01*
X147264464Y-101104223D02*
X147216845Y-101199461D01*
X147216845Y-101199461D02*
X147121607Y-101294700D01*
X147121607Y-101294700D02*
X146978750Y-101342319D01*
X146978750Y-101342319D02*
X146740655Y-101342319D01*
X148264464Y-101342319D02*
X147693036Y-101342319D01*
X147978750Y-101342319D02*
X147978750Y-100342319D01*
X147978750Y-100342319D02*
X147883512Y-100485176D01*
X147883512Y-100485176D02*
X147788274Y-100580414D01*
X147788274Y-100580414D02*
X147693036Y-100628033D01*
X144507321Y-103124795D02*
X144050178Y-103124795D01*
X144278750Y-103124795D02*
X144278750Y-102324795D01*
X144278750Y-102324795D02*
X144202559Y-102439080D01*
X144202559Y-102439080D02*
X144126369Y-102515271D01*
X144126369Y-102515271D02*
X144050178Y-102553366D01*
X120427917Y-133026950D02*
X120570774Y-133074569D01*
X120570774Y-133074569D02*
X120808869Y-133074569D01*
X120808869Y-133074569D02*
X120904107Y-133026950D01*
X120904107Y-133026950D02*
X120951726Y-132979330D01*
X120951726Y-132979330D02*
X120999345Y-132884092D01*
X120999345Y-132884092D02*
X120999345Y-132788854D01*
X120999345Y-132788854D02*
X120951726Y-132693616D01*
X120951726Y-132693616D02*
X120904107Y-132645997D01*
X120904107Y-132645997D02*
X120808869Y-132598378D01*
X120808869Y-132598378D02*
X120618393Y-132550759D01*
X120618393Y-132550759D02*
X120523155Y-132503140D01*
X120523155Y-132503140D02*
X120475536Y-132455521D01*
X120475536Y-132455521D02*
X120427917Y-132360283D01*
X120427917Y-132360283D02*
X120427917Y-132265045D01*
X120427917Y-132265045D02*
X120475536Y-132169807D01*
X120475536Y-132169807D02*
X120523155Y-132122188D01*
X120523155Y-132122188D02*
X120618393Y-132074569D01*
X120618393Y-132074569D02*
X120856488Y-132074569D01*
X120856488Y-132074569D02*
X120999345Y-132122188D01*
X121332679Y-132074569D02*
X121570774Y-133074569D01*
X121570774Y-133074569D02*
X121761250Y-132360283D01*
X121761250Y-132360283D02*
X121951726Y-133074569D01*
X121951726Y-133074569D02*
X122189822Y-132074569D01*
X122999345Y-132407902D02*
X122999345Y-133074569D01*
X122761250Y-132026950D02*
X122523155Y-132741235D01*
X122523155Y-132741235D02*
X123142202Y-132741235D01*
X112771905Y-101342319D02*
X112771905Y-100342319D01*
X112771905Y-100342319D02*
X113010000Y-100342319D01*
X113010000Y-100342319D02*
X113152857Y-100389938D01*
X113152857Y-100389938D02*
X113248095Y-100485176D01*
X113248095Y-100485176D02*
X113295714Y-100580414D01*
X113295714Y-100580414D02*
X113343333Y-100770890D01*
X113343333Y-100770890D02*
X113343333Y-100913747D01*
X113343333Y-100913747D02*
X113295714Y-101104223D01*
X113295714Y-101104223D02*
X113248095Y-101199461D01*
X113248095Y-101199461D02*
X113152857Y-101294700D01*
X113152857Y-101294700D02*
X113010000Y-101342319D01*
X113010000Y-101342319D02*
X112771905Y-101342319D01*
X113724286Y-100437557D02*
X113771905Y-100389938D01*
X113771905Y-100389938D02*
X113867143Y-100342319D01*
X113867143Y-100342319D02*
X114105238Y-100342319D01*
X114105238Y-100342319D02*
X114200476Y-100389938D01*
X114200476Y-100389938D02*
X114248095Y-100437557D01*
X114248095Y-100437557D02*
X114295714Y-100532795D01*
X114295714Y-100532795D02*
X114295714Y-100628033D01*
X114295714Y-100628033D02*
X114248095Y-100770890D01*
X114248095Y-100770890D02*
X113676667Y-101342319D01*
X113676667Y-101342319D02*
X114295714Y-101342319D01*
X110538571Y-103124795D02*
X110081428Y-103124795D01*
X110310000Y-103124795D02*
X110310000Y-102324795D01*
X110310000Y-102324795D02*
X110233809Y-102439080D01*
X110233809Y-102439080D02*
X110157619Y-102515271D01*
X110157619Y-102515271D02*
X110081428Y-102553366D01*
X110902917Y-113976950D02*
X111045774Y-114024569D01*
X111045774Y-114024569D02*
X111283869Y-114024569D01*
X111283869Y-114024569D02*
X111379107Y-113976950D01*
X111379107Y-113976950D02*
X111426726Y-113929330D01*
X111426726Y-113929330D02*
X111474345Y-113834092D01*
X111474345Y-113834092D02*
X111474345Y-113738854D01*
X111474345Y-113738854D02*
X111426726Y-113643616D01*
X111426726Y-113643616D02*
X111379107Y-113595997D01*
X111379107Y-113595997D02*
X111283869Y-113548378D01*
X111283869Y-113548378D02*
X111093393Y-113500759D01*
X111093393Y-113500759D02*
X110998155Y-113453140D01*
X110998155Y-113453140D02*
X110950536Y-113405521D01*
X110950536Y-113405521D02*
X110902917Y-113310283D01*
X110902917Y-113310283D02*
X110902917Y-113215045D01*
X110902917Y-113215045D02*
X110950536Y-113119807D01*
X110950536Y-113119807D02*
X110998155Y-113072188D01*
X110998155Y-113072188D02*
X111093393Y-113024569D01*
X111093393Y-113024569D02*
X111331488Y-113024569D01*
X111331488Y-113024569D02*
X111474345Y-113072188D01*
X111807679Y-113024569D02*
X112045774Y-114024569D01*
X112045774Y-114024569D02*
X112236250Y-113310283D01*
X112236250Y-113310283D02*
X112426726Y-114024569D01*
X112426726Y-114024569D02*
X112664822Y-113024569D01*
X113521964Y-113024569D02*
X113045774Y-113024569D01*
X113045774Y-113024569D02*
X112998155Y-113500759D01*
X112998155Y-113500759D02*
X113045774Y-113453140D01*
X113045774Y-113453140D02*
X113141012Y-113405521D01*
X113141012Y-113405521D02*
X113379107Y-113405521D01*
X113379107Y-113405521D02*
X113474345Y-113453140D01*
X113474345Y-113453140D02*
X113521964Y-113500759D01*
X113521964Y-113500759D02*
X113569583Y-113595997D01*
X113569583Y-113595997D02*
X113569583Y-113834092D01*
X113569583Y-113834092D02*
X113521964Y-113929330D01*
X113521964Y-113929330D02*
X113474345Y-113976950D01*
X113474345Y-113976950D02*
X113379107Y-114024569D01*
X113379107Y-114024569D02*
X113141012Y-114024569D01*
X113141012Y-114024569D02*
X113045774Y-113976950D01*
X113045774Y-113976950D02*
X112998155Y-113929330D01*
X129952917Y-152076950D02*
X130095774Y-152124569D01*
X130095774Y-152124569D02*
X130333869Y-152124569D01*
X130333869Y-152124569D02*
X130429107Y-152076950D01*
X130429107Y-152076950D02*
X130476726Y-152029330D01*
X130476726Y-152029330D02*
X130524345Y-151934092D01*
X130524345Y-151934092D02*
X130524345Y-151838854D01*
X130524345Y-151838854D02*
X130476726Y-151743616D01*
X130476726Y-151743616D02*
X130429107Y-151695997D01*
X130429107Y-151695997D02*
X130333869Y-151648378D01*
X130333869Y-151648378D02*
X130143393Y-151600759D01*
X130143393Y-151600759D02*
X130048155Y-151553140D01*
X130048155Y-151553140D02*
X130000536Y-151505521D01*
X130000536Y-151505521D02*
X129952917Y-151410283D01*
X129952917Y-151410283D02*
X129952917Y-151315045D01*
X129952917Y-151315045D02*
X130000536Y-151219807D01*
X130000536Y-151219807D02*
X130048155Y-151172188D01*
X130048155Y-151172188D02*
X130143393Y-151124569D01*
X130143393Y-151124569D02*
X130381488Y-151124569D01*
X130381488Y-151124569D02*
X130524345Y-151172188D01*
X130857679Y-151124569D02*
X131095774Y-152124569D01*
X131095774Y-152124569D02*
X131286250Y-151410283D01*
X131286250Y-151410283D02*
X131476726Y-152124569D01*
X131476726Y-152124569D02*
X131714822Y-151124569D01*
X132619583Y-152124569D02*
X132048155Y-152124569D01*
X132333869Y-152124569D02*
X132333869Y-151124569D01*
X132333869Y-151124569D02*
X132238631Y-151267426D01*
X132238631Y-151267426D02*
X132143393Y-151362664D01*
X132143393Y-151362664D02*
X132048155Y-151410283D01*
X139477917Y-133026950D02*
X139620774Y-133074569D01*
X139620774Y-133074569D02*
X139858869Y-133074569D01*
X139858869Y-133074569D02*
X139954107Y-133026950D01*
X139954107Y-133026950D02*
X140001726Y-132979330D01*
X140001726Y-132979330D02*
X140049345Y-132884092D01*
X140049345Y-132884092D02*
X140049345Y-132788854D01*
X140049345Y-132788854D02*
X140001726Y-132693616D01*
X140001726Y-132693616D02*
X139954107Y-132645997D01*
X139954107Y-132645997D02*
X139858869Y-132598378D01*
X139858869Y-132598378D02*
X139668393Y-132550759D01*
X139668393Y-132550759D02*
X139573155Y-132503140D01*
X139573155Y-132503140D02*
X139525536Y-132455521D01*
X139525536Y-132455521D02*
X139477917Y-132360283D01*
X139477917Y-132360283D02*
X139477917Y-132265045D01*
X139477917Y-132265045D02*
X139525536Y-132169807D01*
X139525536Y-132169807D02*
X139573155Y-132122188D01*
X139573155Y-132122188D02*
X139668393Y-132074569D01*
X139668393Y-132074569D02*
X139906488Y-132074569D01*
X139906488Y-132074569D02*
X140049345Y-132122188D01*
X140382679Y-132074569D02*
X140620774Y-133074569D01*
X140620774Y-133074569D02*
X140811250Y-132360283D01*
X140811250Y-132360283D02*
X141001726Y-133074569D01*
X141001726Y-133074569D02*
X141239822Y-132074569D01*
X141525536Y-132074569D02*
X142144583Y-132074569D01*
X142144583Y-132074569D02*
X141811250Y-132455521D01*
X141811250Y-132455521D02*
X141954107Y-132455521D01*
X141954107Y-132455521D02*
X142049345Y-132503140D01*
X142049345Y-132503140D02*
X142096964Y-132550759D01*
X142096964Y-132550759D02*
X142144583Y-132645997D01*
X142144583Y-132645997D02*
X142144583Y-132884092D01*
X142144583Y-132884092D02*
X142096964Y-132979330D01*
X142096964Y-132979330D02*
X142049345Y-133026950D01*
X142049345Y-133026950D02*
X141954107Y-133074569D01*
X141954107Y-133074569D02*
X141668393Y-133074569D01*
X141668393Y-133074569D02*
X141573155Y-133026950D01*
X141573155Y-133026950D02*
X141525536Y-132979330D01*
D13*
%TO.C,U1*%
X122396250Y-108997750D02*
X122396250Y-91852750D01*
X124301250Y-110902750D02*
X138271250Y-110902750D01*
X126791250Y-89947750D02*
X126794978Y-89037478D01*
X127294978Y-88537750D02*
X135290250Y-88537750D01*
X135790250Y-89037750D02*
X135790250Y-89947750D01*
D10*
X138271250Y-89947750D02*
X124301250Y-89947750D01*
D13*
X138271250Y-89947750D02*
X124301250Y-89947750D01*
X140176250Y-108997750D02*
X140176250Y-91852750D01*
X122396250Y-91852750D02*
G75*
G02*
X124301250Y-89947750I1905001J-1D01*
G01*
X124301250Y-110902750D02*
G75*
G02*
X122396250Y-108997750I1J1905001D01*
G01*
X126794978Y-89037478D02*
G75*
G02*
X127294978Y-88537751I500018J-291D01*
G01*
X135290250Y-88537750D02*
G75*
G02*
X135790250Y-89037750I0J-500000D01*
G01*
X138271250Y-89947750D02*
G75*
G02*
X140176250Y-91852750I0J-1905000D01*
G01*
X140176250Y-108997750D02*
G75*
G02*
X138271250Y-110902750I-1905000J0D01*
G01*
D14*
X122588250Y-90188750D02*
G75*
G02*
X122084250Y-90188750I-252000J0D01*
G01*
X122084250Y-90188750D02*
G75*
G02*
X122588250Y-90188750I252000J0D01*
G01*
X123731250Y-91068750D02*
G75*
G02*
X123227250Y-91068750I-252000J0D01*
G01*
X123227250Y-91068750D02*
G75*
G02*
X123731250Y-91068750I252000J0D01*
G01*
D15*
%TO.C,SW2*%
X138271250Y-128428750D02*
X124301250Y-128428750D01*
X138271250Y-114458750D02*
X138271250Y-128428750D01*
X124301250Y-128428750D02*
X124301250Y-114458750D01*
X124301250Y-114458750D02*
X138271250Y-114458750D01*
%TO.C,SW8*%
X143351250Y-114458750D02*
X157321250Y-114458750D01*
X143351250Y-128428750D02*
X143351250Y-114458750D01*
X157321250Y-114458750D02*
X157321250Y-128428750D01*
X157321250Y-128428750D02*
X143351250Y-128428750D01*
%TO.C,D1*%
X150278750Y-102287500D02*
X150278750Y-98887500D01*
X150278750Y-102287500D02*
X149678750Y-102887500D01*
X144678750Y-102887500D02*
X149678750Y-102887500D01*
X144678750Y-98887500D02*
X150278750Y-98887500D01*
X144678750Y-98887500D02*
X144678750Y-102887500D01*
%TO.C,SW4*%
X128746250Y-147478750D02*
X114776250Y-147478750D01*
X128746250Y-133508750D02*
X128746250Y-147478750D01*
X114776250Y-147478750D02*
X114776250Y-133508750D01*
X114776250Y-133508750D02*
X128746250Y-133508750D01*
%TO.C,D2*%
X110710000Y-98887500D02*
X110710000Y-102887500D01*
X110710000Y-98887500D02*
X116310000Y-98887500D01*
X110710000Y-102887500D02*
X115710000Y-102887500D01*
X116310000Y-102287500D02*
X115710000Y-102887500D01*
X116310000Y-102287500D02*
X116310000Y-98887500D01*
%TO.C,SW5*%
X105251250Y-114458750D02*
X119221250Y-114458750D01*
X105251250Y-128428750D02*
X105251250Y-114458750D01*
X119221250Y-114458750D02*
X119221250Y-128428750D01*
X119221250Y-128428750D02*
X105251250Y-128428750D01*
%TO.C,SW1*%
X138271250Y-166528750D02*
X124301250Y-166528750D01*
X138271250Y-152558750D02*
X138271250Y-166528750D01*
X124301250Y-166528750D02*
X124301250Y-152558750D01*
X124301250Y-152558750D02*
X138271250Y-152558750D01*
%TO.C,SW3*%
X147796250Y-147478750D02*
X133826250Y-147478750D01*
X147796250Y-133508750D02*
X147796250Y-147478750D01*
X133826250Y-147478750D02*
X133826250Y-133508750D01*
X133826250Y-133508750D02*
X147796250Y-133508750D01*
%TD*%
M02*
