%TF.GenerationSoftware,KiCad,Pcbnew,9.0.2*%
%TF.CreationDate,2025-07-05T15:14:08-07:00*%
%TF.ProjectId,Hackpad,4861636b-7061-4642-9e6b-696361645f70,rev?*%
%TF.SameCoordinates,Original*%
%TF.FileFunction,Copper,L1,Top*%
%TF.FilePolarity,Positive*%
%FSLAX46Y46*%
G04 Gerber Fmt 4.6, Leading zero omitted, Abs format (unit mm)*
G04 Created by KiCad (PCBNEW 9.0.2) date 2025-07-05 15:14:08*
%MOMM*%
%LPD*%
G01*
G04 APERTURE LIST*
G04 Aperture macros list*
%AMRoundRect*
0 Rectangle with rounded corners*
0 $1 Rounding radius*
0 $2 $3 $4 $5 $6 $7 $8 $9 X,Y pos of 4 corners*
0 Add a 4 corners polygon primitive as box body*
4,1,4,$2,$3,$4,$5,$6,$7,$8,$9,$2,$3,0*
0 Add four circle primitives for the rounded corners*
1,1,$1+$1,$2,$3*
1,1,$1+$1,$4,$5*
1,1,$1+$1,$6,$7*
1,1,$1+$1,$8,$9*
0 Add four rect primitives between the rounded corners*
20,1,$1+$1,$2,$3,$4,$5,0*
20,1,$1+$1,$4,$5,$6,$7,0*
20,1,$1+$1,$6,$7,$8,$9,0*
20,1,$1+$1,$8,$9,$2,$3,0*%
G04 Aperture macros list end*
%TA.AperFunction,SMDPad,CuDef*%
%ADD10RoundRect,0.152400X1.063600X0.609600X-1.063600X0.609600X-1.063600X-0.609600X1.063600X-0.609600X0*%
%TD*%
%TA.AperFunction,ComponentPad*%
%ADD11C,1.524000*%
%TD*%
%TA.AperFunction,SMDPad,CuDef*%
%ADD12RoundRect,0.152400X-1.063600X-0.609600X1.063600X-0.609600X1.063600X0.609600X-1.063600X0.609600X0*%
%TD*%
%TA.AperFunction,ComponentPad*%
%ADD13C,2.200000*%
%TD*%
%TA.AperFunction,SMDPad,CuDef*%
%ADD14R,1.600000X0.850000*%
%TD*%
%TA.AperFunction,Conductor*%
%ADD15C,0.200000*%
%TD*%
G04 APERTURE END LIST*
D10*
%TO.P,U1,1,GPIO26/ADC0/A0*%
%TO.N,unconnected-(U1-GPIO26{slash}ADC0{slash}A0-Pad1)*%
X122831250Y-92868750D03*
D11*
X123666250Y-92868750D03*
D10*
%TO.P,U1,2,GPIO27/ADC1/A1*%
%TO.N,unconnected-(U1-GPIO27{slash}ADC1{slash}A1-Pad2)*%
X122831250Y-95408750D03*
D11*
X123666250Y-95408750D03*
D10*
%TO.P,U1,3,GPIO28/ADC2/A2*%
%TO.N,unconnected-(U1-GPIO28{slash}ADC2{slash}A2-Pad3)*%
X122831250Y-97948750D03*
D11*
X123666250Y-97948750D03*
D10*
%TO.P,U1,4,GPIO29/ADC3/A3*%
%TO.N,unconnected-(U1-GPIO29{slash}ADC3{slash}A3-Pad4)*%
X122831250Y-100488750D03*
D11*
X123666250Y-100488750D03*
D10*
%TO.P,U1,5,GPIO6/SDA*%
%TO.N,Net-(D1-DIN)*%
X122831250Y-103028750D03*
D11*
X123666250Y-103028750D03*
D10*
%TO.P,U1,6,GPIO7/SCL*%
%TO.N,Net-(U1-GPIO7{slash}SCL)*%
X122831250Y-105568750D03*
D11*
X123666250Y-105568750D03*
D10*
%TO.P,U1,7,GPIO0/TX*%
%TO.N,Net-(U1-GPIO0{slash}TX)*%
X122831250Y-108108750D03*
D11*
X123666250Y-108108750D03*
%TO.P,U1,8,GPIO1/RX*%
%TO.N,Net-(U1-GPIO1{slash}RX)*%
X138906250Y-108108750D03*
D12*
X139741250Y-108108750D03*
D11*
%TO.P,U1,9,GPIO2/SCK*%
%TO.N,Net-(U1-GPIO2{slash}SCK)*%
X138906250Y-105568750D03*
D12*
X139741250Y-105568750D03*
D11*
%TO.P,U1,10,GPIO4/MISO*%
%TO.N,Net-(U1-GPIO4{slash}MISO)*%
X138906250Y-103028750D03*
D12*
X139741250Y-103028750D03*
D11*
%TO.P,U1,11,GPIO3/MOSI*%
%TO.N,Net-(U1-GPIO3{slash}MOSI)*%
X138906250Y-100488750D03*
D12*
X139741250Y-100488750D03*
D11*
%TO.P,U1,12,3V3*%
%TO.N,unconnected-(U1-3V3-Pad12)*%
X138906250Y-97948750D03*
D12*
X139741250Y-97948750D03*
D11*
%TO.P,U1,13,GND*%
%TO.N,GND*%
X138906250Y-95408750D03*
D12*
X139741250Y-95408750D03*
D11*
%TO.P,U1,14,VBUS*%
%TO.N,+5V*%
X138906250Y-92868750D03*
D12*
X139741250Y-92868750D03*
%TD*%
D13*
%TO.P,SW2,2,2*%
%TO.N,Net-(U1-GPIO2{slash}SCK)*%
X127476250Y-118903750D03*
%TO.P,SW2,1,1*%
%TO.N,GND*%
X133826250Y-116363750D03*
%TD*%
%TO.P,SW8,1,1*%
%TO.N,GND*%
X152876250Y-116363750D03*
%TO.P,SW8,2,2*%
%TO.N,Net-(U1-GPIO7{slash}SCL)*%
X146526250Y-118903750D03*
%TD*%
D14*
%TO.P,D1,4,VDD*%
%TO.N,+5V*%
X149228750Y-100012500D03*
%TO.P,D1,3,DIN*%
%TO.N,Net-(D1-DIN)*%
X149228750Y-101762500D03*
%TO.P,D1,2,VSS*%
%TO.N,GND*%
X145728750Y-101762500D03*
%TO.P,D1,1,DOUT*%
%TO.N,Net-(D1-DOUT)*%
X145728750Y-100012500D03*
%TD*%
D13*
%TO.P,SW4,2,2*%
%TO.N,Net-(U1-GPIO3{slash}MOSI)*%
X117951250Y-137953750D03*
%TO.P,SW4,1,1*%
%TO.N,GND*%
X124301250Y-135413750D03*
%TD*%
D14*
%TO.P,D2,1,DOUT*%
%TO.N,unconnected-(D2-DOUT-Pad1)*%
X111760000Y-100012500D03*
%TO.P,D2,2,VSS*%
%TO.N,GND*%
X111760000Y-101762500D03*
%TO.P,D2,3,DIN*%
%TO.N,Net-(D1-DOUT)*%
X115260000Y-101762500D03*
%TO.P,D2,4,VDD*%
%TO.N,+5V*%
X115260000Y-100012500D03*
%TD*%
D13*
%TO.P,SW5,1,1*%
%TO.N,GND*%
X114776250Y-116363750D03*
%TO.P,SW5,2,2*%
%TO.N,Net-(U1-GPIO0{slash}TX)*%
X108426250Y-118903750D03*
%TD*%
%TO.P,SW1,2,2*%
%TO.N,Net-(U1-GPIO1{slash}RX)*%
X127476250Y-157003750D03*
%TO.P,SW1,1,1*%
%TO.N,GND*%
X133826250Y-154463750D03*
%TD*%
%TO.P,SW3,2,2*%
%TO.N,Net-(U1-GPIO4{slash}MISO)*%
X137001250Y-137953750D03*
%TO.P,SW3,1,1*%
%TO.N,GND*%
X143351250Y-135413750D03*
%TD*%
D15*
%TO.N,GND*%
X114776250Y-116363750D02*
X114776250Y-136760064D01*
X133826250Y-125103934D02*
X133826250Y-116363750D01*
X114776250Y-136760064D02*
X117536120Y-139519934D01*
X119410250Y-139519934D02*
X133826250Y-125103934D01*
%TO.N,Net-(U1-GPIO4{slash}MISO)*%
X137001250Y-137953750D02*
X136572780Y-137953750D01*
X136572780Y-137953750D02*
X132425250Y-142101280D01*
X132425250Y-142101280D02*
X132425250Y-155044064D01*
X132425250Y-155044064D02*
X133245936Y-155864750D01*
X144752250Y-135994064D02*
X144752250Y-134833436D01*
X133245936Y-155864750D02*
X134406564Y-155864750D01*
X134406564Y-155864750D02*
X143931564Y-146339750D01*
X143931564Y-146339750D02*
X143931564Y-136814750D01*
X143931564Y-136814750D02*
X144752250Y-135994064D01*
X144752250Y-134833436D02*
X143931564Y-134012750D01*
X143931564Y-134012750D02*
X143931564Y-107219064D01*
X143931564Y-107219064D02*
X139741250Y-103028750D01*
%TO.N,GND*%
X152876250Y-116363750D02*
X152876250Y-103583000D01*
X152876250Y-103583000D02*
X150329750Y-101036500D01*
X146454750Y-101036500D02*
X145728750Y-101762500D01*
X150329750Y-101036500D02*
X146454750Y-101036500D01*
%TO.N,Net-(D1-DIN)*%
X123666250Y-103028750D02*
X127670250Y-99024750D01*
X127670250Y-99024750D02*
X141164000Y-99024750D01*
X141164000Y-99024750D02*
X144627750Y-102488500D01*
X144627750Y-102488500D02*
X148502750Y-102488500D01*
X148502750Y-102488500D02*
X149228750Y-101762500D01*
%TO.N,Net-(U1-GPIO7{slash}SCL)*%
X123666250Y-105568750D02*
X129809250Y-99425750D01*
X129809250Y-99425750D02*
X140996876Y-99425750D01*
X140996876Y-99425750D02*
X146526250Y-104955124D01*
X146526250Y-104955124D02*
X146526250Y-118903750D01*
%TO.N,GND*%
X111760000Y-101762500D02*
X107025250Y-106497250D01*
X107025250Y-119484064D02*
X107845936Y-120304750D01*
X107025250Y-106497250D02*
X107025250Y-119484064D01*
X107845936Y-120304750D02*
X109006564Y-120304750D01*
X109006564Y-120304750D02*
X112947564Y-116363750D01*
X112947564Y-116363750D02*
X114776250Y-116363750D01*
%TO.N,Net-(U1-GPIO0{slash}TX)*%
X108426250Y-118903750D02*
X119221250Y-108108750D01*
X119221250Y-108108750D02*
X122831250Y-108108750D01*
%TO.N,GND*%
X124301250Y-135413750D02*
X123459720Y-135413750D01*
X123459720Y-135413750D02*
X118877190Y-139996280D01*
X118877190Y-139996280D02*
X118012466Y-139996280D01*
X118012466Y-139996280D02*
X114776250Y-136760064D01*
%TO.N,Net-(U1-GPIO2{slash}SCK)*%
X127476250Y-118903750D02*
X127476250Y-116998750D01*
X127476250Y-116998750D02*
X138906250Y-105568750D01*
%TO.N,GND*%
X143351250Y-135413750D02*
X143351250Y-109400124D01*
X140996876Y-107045750D02*
X138465940Y-107045750D01*
X133826250Y-111685440D02*
X133826250Y-116363750D01*
X143351250Y-109400124D02*
X140996876Y-107045750D01*
X138465940Y-107045750D02*
X133826250Y-111685440D01*
X133826250Y-154463750D02*
X133826250Y-144153934D01*
X133826250Y-144153934D02*
X142566434Y-135413750D01*
X142566434Y-135413750D02*
X143351250Y-135413750D01*
%TO.N,Net-(U1-GPIO1{slash}RX)*%
X127476250Y-157003750D02*
X127476250Y-145497436D01*
X127476250Y-145497436D02*
X138906250Y-134067436D01*
X138906250Y-134067436D02*
X138906250Y-108108750D01*
%TO.N,+5V*%
X138906250Y-92868750D02*
X128123560Y-92868750D01*
X128123560Y-92868750D02*
X124106560Y-96885750D01*
X124106560Y-96885750D02*
X118386750Y-96885750D01*
X118386750Y-96885750D02*
X115260000Y-100012500D01*
X149228750Y-100012500D02*
X142085000Y-92868750D01*
X142085000Y-92868750D02*
X139741250Y-92868750D01*
%TO.N,Net-(D1-DOUT)*%
X145728750Y-100012500D02*
X145728750Y-99077624D01*
X124106560Y-99425750D02*
X117596750Y-99425750D01*
X145728750Y-99077624D02*
X140996876Y-94345750D01*
X129186560Y-94345750D02*
X124106560Y-99425750D01*
X140996876Y-94345750D02*
X129186560Y-94345750D01*
X117596750Y-99425750D02*
X115260000Y-101762500D01*
%TO.N,GND*%
X145728750Y-101762500D02*
X141258250Y-97292000D01*
X141258250Y-96925750D02*
X139741250Y-95408750D01*
X141258250Y-97292000D02*
X141258250Y-96925750D01*
%TO.N,Net-(U1-GPIO3{slash}MOSI)*%
X137843250Y-101551750D02*
X138906250Y-100488750D01*
X137843250Y-105044250D02*
X137843250Y-101551750D01*
X117951250Y-124936250D02*
X137843250Y-105044250D01*
X117951250Y-137953750D02*
X117951250Y-124936250D01*
%TO.N,GND*%
X152876250Y-137962164D02*
X152876250Y-116363750D01*
X134572664Y-156265750D02*
X152876250Y-137962164D01*
X131239434Y-156265750D02*
X134572664Y-156265750D01*
X128935250Y-158569934D02*
X131239434Y-156265750D01*
X127061120Y-158569934D02*
X128935250Y-158569934D01*
X124301250Y-155810064D02*
X127061120Y-158569934D01*
X124301250Y-135413750D02*
X124301250Y-155810064D01*
%TD*%
M02*
